<svg width="177" height="98" viewBox="0 0 177 98" fill="none" xmlns="http://www.w3.org/2000/svg">
<path d="M15.84 95L15.818 85.76L11.286 93.372H9.68L5.17 85.958V95H1.826V79.6H4.774L10.538 89.17L16.214 79.6H19.14L19.184 95H15.84ZM30.2957 95.264C28.6971 95.264 27.2524 94.9193 25.9617 94.23C24.6857 93.5407 23.6811 92.5947 22.9477 91.392C22.2291 90.1747 21.8697 88.8107 21.8697 87.3C21.8697 85.7893 22.2291 84.4327 22.9477 83.23C23.6811 82.0127 24.6857 81.0593 25.9617 80.37C27.2524 79.6807 28.6971 79.336 30.2957 79.336C31.8944 79.336 33.3317 79.6807 34.6077 80.37C35.8837 81.0593 36.8884 82.0127 37.6217 83.23C38.3551 84.4327 38.7217 85.7893 38.7217 87.3C38.7217 88.8107 38.3551 90.1747 37.6217 91.392C36.8884 92.5947 35.8837 93.5407 34.6077 94.23C33.3317 94.9193 31.8944 95.264 30.2957 95.264ZM30.2957 92.228C31.2051 92.228 32.0264 92.0227 32.7597 91.612C33.4931 91.1867 34.0651 90.6 34.4757 89.852C34.9011 89.104 35.1137 88.2533 35.1137 87.3C35.1137 86.3467 34.9011 85.496 34.4757 84.748C34.0651 84 33.4931 83.4207 32.7597 83.01C32.0264 82.5847 31.2051 82.372 30.2957 82.372C29.3864 82.372 28.5651 82.5847 27.8317 83.01C27.0984 83.4207 26.5191 84 26.0937 84.748C25.6831 85.496 25.4777 86.3467 25.4777 87.3C25.4777 88.2533 25.6831 89.104 26.0937 89.852C26.5191 90.6 27.0984 91.1867 27.8317 91.612C28.5651 92.0227 29.3864 92.228 30.2957 92.228ZM48.7702 95.264C47.2009 95.264 45.7782 94.9267 44.5022 94.252C43.2409 93.5627 42.2436 92.6167 41.5102 91.414C40.7916 90.1967 40.4322 88.8253 40.4322 87.3C40.4322 85.7747 40.7916 84.4107 41.5102 83.208C42.2436 81.9907 43.2409 81.0447 44.5022 80.37C45.7782 79.6807 47.2082 79.336 48.7922 79.336C50.1269 79.336 51.3296 79.5707 52.4002 80.04C53.4856 80.5093 54.3949 81.184 55.1282 82.064L52.8402 84.176C51.7989 82.9733 50.5082 82.372 48.9682 82.372C48.0149 82.372 47.1642 82.5847 46.4162 83.01C45.6682 83.4207 45.0816 84 44.6562 84.748C44.2456 85.496 44.0402 86.3467 44.0402 87.3C44.0402 88.2533 44.2456 89.104 44.6562 89.852C45.0816 90.6 45.6682 91.1867 46.4162 91.612C47.1642 92.0227 48.0149 92.228 48.9682 92.228C50.5082 92.228 51.7989 91.6193 52.8402 90.402L55.1282 92.514C54.3949 93.4087 53.4856 94.0907 52.4002 94.56C51.3149 95.0293 50.1049 95.264 48.7702 95.264ZM71.659 79.6V95H68.095V88.686H61.099V95H57.535V79.6H61.099V85.672H68.095V79.6H71.659ZM75.3026 79.6H78.8666V95H75.3026V79.6Z" fill="#BD162C"/>
<path d="M91.9418 82.504H87.0138V79.6H100.434V82.504H95.5058V95H91.9418V82.504ZM112.163 95L109.193 90.71H109.017H105.915V95H102.351V79.6H109.017C110.381 79.6 111.562 79.8273 112.559 80.282C113.571 80.7367 114.349 81.382 114.891 82.218C115.434 83.054 115.705 84.044 115.705 85.188C115.705 86.332 115.427 87.322 114.869 88.158C114.327 88.9793 113.549 89.61 112.537 90.05L115.991 95H112.163ZM112.097 85.188C112.097 84.3227 111.819 83.6627 111.261 83.208C110.704 82.7387 109.89 82.504 108.819 82.504H105.915V87.872H108.819C109.89 87.872 110.704 87.6373 111.261 87.168C111.819 86.6987 112.097 86.0387 112.097 85.188ZM128.671 91.7H121.521L120.157 95H116.505L123.369 79.6H126.889L133.775 95H130.035L128.671 91.7ZM127.549 88.994L125.107 83.098L122.665 88.994H127.549ZM149.341 79.6L142.675 95H139.155L132.511 79.6H136.361L141.047 90.6L145.799 79.6H149.341ZM162.551 92.14V95H150.627V79.6H162.265V82.46H154.169V85.804H161.319V88.576H154.169V92.14H162.551ZM165.387 79.6H168.951V92.096H176.673V95H165.387V79.6Z" fill="#E88727"/>
<path d="M83.9047 22.7261L88.541 19.5H90.3956L95.0319 22.7261L92.2501 54.9871L95.0319 64.6654L92.2501 71.1176L89.4683 38.8566L86.6865 71.1176L83.9047 64.6654L86.6865 54.9871L83.9047 22.7261Z" fill="#BD162C"/>
<path d="M89.4683 43.5882L91.9972 74.246L89.4683 75.7059L86.9394 74.246L89.4683 43.5882Z" fill="url(#paint0_linear_118_2)"/>
<path d="M83.9302 59.4639L82.4223 64.9237L83.93 67.8302L66.3997 70.7834L83.9302 59.4639Z" fill="url(#paint1_linear_118_2)"/>
<path d="M96.2308 59.464L97.7388 64.9237L96.2311 67.8303L113.761 70.7834L96.2308 59.464Z" fill="url(#paint2_linear_118_2)"/>
<path d="M89.4454 0L92.5029 7.58333L94.0203 19.5L89.4454 8.35714L84.9163 19.5L86.4336 7.58333L89.4454 0Z" fill="#BD162C"/>
<path d="M38.1465 31.0504L83.7268 18.1067L77.9889 22.8786L38.2703 33.8563L25.483 51.6177L38.1465 31.0504Z" fill="url(#paint3_linear_118_2)"/>
<path d="M29.7546 50.0538L38.454 34.2635L39.6678 33.881L29.7546 50.0538Z" fill="url(#paint4_linear_118_2)"/>
<path d="M32.7954 49.2376L40.9852 33.5601L42.2008 33.1774L32.7954 49.2376Z" fill="url(#paint5_linear_118_2)"/>
<path d="M43.4535 46.732L52.994 30.5196L54.6104 29.9627L43.4535 46.732Z" fill="url(#paint6_linear_118_2)"/>
<path d="M35.3326 48.632L43.2586 33.0188L44.4694 32.5661L35.3326 48.632Z" fill="url(#paint7_linear_118_2)"/>
<path d="M41.4222 47.1823L50.3016 31.0955L51.7678 30.6216L41.4222 47.1823Z" fill="url(#paint8_linear_118_2)"/>
<path d="M45.9882 46.0703L55.8304 29.7203L57.5796 29.1525L45.9882 46.0703Z" fill="url(#paint9_linear_118_2)"/>
<path d="M48.3952 45.4758L58.9452 28.898L60.9641 28.1669L48.3952 45.4758Z" fill="url(#paint10_linear_118_2)"/>
<path d="M50.7581 44.9275L62.3144 27.9138L64.3396 27.3229L50.7581 44.9275Z" fill="url(#paint11_linear_118_2)"/>
<path d="M53.294 44.294L65.7639 27.0637L67.9872 26.3155L53.294 44.294Z" fill="url(#paint12_linear_118_2)"/>
<path d="M56.1367 43.6351L69.712 25.8902L72.5484 25.0912L56.1367 43.6351Z" fill="url(#paint13_linear_118_2)"/>
<path d="M59.1824 42.9314L74.0376 24.8971L77.3015 23.5695L59.1824 42.9314Z" fill="url(#paint14_linear_118_2)"/>
<path d="M39.394 47.7029L47.922 31.7862L49.2349 31.325L39.394 47.7029Z" fill="url(#paint15_linear_118_2)"/>
<path d="M37.3658 48.2239L45.6925 32.3943L46.9032 31.9414L37.3658 48.2239Z" fill="url(#paint16_linear_118_2)"/>
<path d="M141.802 31.0504L96.2214 18.1067L101.959 22.8786L141.678 33.8563L154.465 51.6176L141.802 31.0504Z" fill="url(#paint17_linear_118_2)"/>
<path d="M150.194 50.0536L141.494 34.2634L140.28 33.8808L150.194 50.0536Z" fill="url(#paint18_linear_118_2)"/>
<path d="M147.153 49.2375L138.963 33.5601L137.747 33.1773L147.153 49.2375Z" fill="url(#paint19_linear_118_2)"/>
<path d="M144.616 48.632L136.69 33.0189L135.479 32.5661L144.616 48.632Z" fill="url(#paint20_linear_118_2)"/>
<path d="M136.495 46.732L126.954 30.5197L125.338 29.9627L136.495 46.732Z" fill="url(#paint21_linear_118_2)"/>
<path d="M138.526 47.1822L129.647 31.0954L128.18 30.6216L138.526 47.1822Z" fill="url(#paint22_linear_118_2)"/>
<path d="M133.96 46.0703L124.118 29.7204L122.369 29.1525L133.96 46.0703Z" fill="url(#paint23_linear_118_2)"/>
<path d="M131.553 45.4757L121.003 28.898L118.984 28.1668L131.553 45.4757Z" fill="url(#paint24_linear_118_2)"/>
<path d="M129.19 44.9275L117.634 27.9138L115.609 27.3229L129.19 44.9275Z" fill="url(#paint25_linear_118_2)"/>
<path d="M126.654 44.2939L114.184 27.0636L111.961 26.3155L126.654 44.2939Z" fill="url(#paint26_linear_118_2)"/>
<path d="M123.811 43.6351L110.236 25.8903L107.4 25.0913L123.811 43.6351Z" fill="url(#paint27_linear_118_2)"/>
<path d="M120.766 42.9314L105.911 24.897L102.647 23.5695L120.766 42.9314Z" fill="url(#paint28_linear_118_2)"/>
<path d="M140.554 47.7029L132.026 31.7862L130.713 31.325L140.554 47.7029Z" fill="url(#paint29_linear_118_2)"/>
<path d="M142.582 48.2239L134.256 32.3943L133.045 31.9415L142.582 48.2239Z" fill="url(#paint30_linear_118_2)"/>
<defs>
<linearGradient id="paint0_linear_118_2" x1="89.4683" y1="43.5882" x2="89.4683" y2="75.7059" gradientUnits="userSpaceOnUse">
<stop offset="0.677083" stop-color="#BD162C"/>
<stop offset="1" stop-color="#E88727"/>
</linearGradient>
<linearGradient id="paint1_linear_118_2" x1="81.4329" y1="57.9515" x2="71.7132" y2="74.0012" gradientUnits="userSpaceOnUse">
<stop offset="0.34375" stop-color="#BD162C"/>
<stop offset="1" stop-color="#E88727"/>
</linearGradient>
<linearGradient id="paint2_linear_118_2" x1="98.7282" y1="57.9515" x2="108.448" y2="74.0012" gradientUnits="userSpaceOnUse">
<stop offset="0.34375" stop-color="#BD162C"/>
<stop offset="1" stop-color="#E88727"/>
</linearGradient>
<linearGradient id="paint3_linear_118_2" x1="70.5262" y1="25.6155" x2="71.4905" y2="50.8977" gradientUnits="userSpaceOnUse">
<stop offset="0.333333" stop-color="#BD162C"/>
<stop offset="0.625" stop-color="#E88727"/>
</linearGradient>
<linearGradient id="paint4_linear_118_2" x1="30.6122" y1="50.8037" x2="42.9219" y2="36.7265" gradientUnits="userSpaceOnUse">
<stop offset="0.463542" stop-color="#E88727"/>
<stop offset="0.770833" stop-color="#BD162C"/>
</linearGradient>
<linearGradient id="paint5_linear_118_2" x1="33.491" y1="49.8458" x2="45.5248" y2="36.084" gradientUnits="userSpaceOnUse">
<stop offset="0.463542" stop-color="#E88727"/>
<stop offset="0.770833" stop-color="#BD162C"/>
</linearGradient>
<linearGradient id="paint6_linear_118_2" x1="44.6551" y1="47.7827" x2="57.7993" y2="32.7512" gradientUnits="userSpaceOnUse">
<stop offset="0.463542" stop-color="#E88727"/>
<stop offset="0.770833" stop-color="#BD162C"/>
</linearGradient>
<linearGradient id="paint7_linear_118_2" x1="35.9317" y1="49.1558" x2="47.8519" y2="35.5239" gradientUnits="userSpaceOnUse">
<stop offset="0.463542" stop-color="#E88727"/>
<stop offset="0.770833" stop-color="#BD162C"/>
</linearGradient>
<linearGradient id="paint8_linear_118_2" x1="42.3696" y1="48.0107" x2="55.0588" y2="33.4994" gradientUnits="userSpaceOnUse">
<stop offset="0.463542" stop-color="#E88727"/>
<stop offset="0.770833" stop-color="#BD162C"/>
</linearGradient>
<linearGradient id="paint9_linear_118_2" x1="47.3198" y1="47.2348" x2="60.7259" y2="31.9037" gradientUnits="userSpaceOnUse">
<stop offset="0.463542" stop-color="#E88727"/>
<stop offset="0.770833" stop-color="#BD162C"/>
</linearGradient>
<linearGradient id="paint10_linear_118_2" x1="50.01" y1="46.8878" x2="64.0334" y2="30.8508" gradientUnits="userSpaceOnUse">
<stop offset="0.463542" stop-color="#E88727"/>
<stop offset="0.770833" stop-color="#BD162C"/>
</linearGradient>
<linearGradient id="paint11_linear_118_2" x1="52.6843" y1="46.6119" x2="67.293" y2="29.9055" gradientUnits="userSpaceOnUse">
<stop offset="0.463542" stop-color="#E88727"/>
<stop offset="0.770833" stop-color="#BD162C"/>
</linearGradient>
<linearGradient id="paint12_linear_118_2" x1="55.554" y1="46.2702" x2="70.8296" y2="28.8011" gradientUnits="userSpaceOnUse">
<stop offset="0.463542" stop-color="#E88727"/>
<stop offset="0.770833" stop-color="#BD162C"/>
</linearGradient>
<linearGradient id="paint13_linear_118_2" x1="58.9147" y1="46.0642" x2="75.2151" y2="27.4231" gradientUnits="userSpaceOnUse">
<stop offset="0.463542" stop-color="#E88727"/>
<stop offset="0.770833" stop-color="#BD162C"/>
</linearGradient>
<linearGradient id="paint14_linear_118_2" x1="62.4327" y1="45.7736" x2="79.8784" y2="25.8229" gradientUnits="userSpaceOnUse">
<stop offset="0.463542" stop-color="#E88727"/>
<stop offset="0.770833" stop-color="#BD162C"/>
</linearGradient>
<linearGradient id="paint15_linear_118_2" x1="40.1921" y1="48.4008" x2="52.5721" y2="34.2431" gradientUnits="userSpaceOnUse">
<stop offset="0.463542" stop-color="#E88727"/>
<stop offset="0.770833" stop-color="#BD162C"/>
</linearGradient>
<linearGradient id="paint16_linear_118_2" x1="38.0716" y1="48.8412" x2="50.2728" y2="34.888" gradientUnits="userSpaceOnUse">
<stop offset="0.463542" stop-color="#E88727"/>
<stop offset="0.770833" stop-color="#BD162C"/>
</linearGradient>
<linearGradient id="paint17_linear_118_2" x1="109.422" y1="25.6155" x2="108.458" y2="50.8976" gradientUnits="userSpaceOnUse">
<stop offset="0.333333" stop-color="#BD162C"/>
<stop offset="0.625" stop-color="#E88727"/>
</linearGradient>
<linearGradient id="paint18_linear_118_2" x1="149.336" y1="50.8035" x2="137.026" y2="36.7263" gradientUnits="userSpaceOnUse">
<stop offset="0.463542" stop-color="#E88727"/>
<stop offset="0.770833" stop-color="#BD162C"/>
</linearGradient>
<linearGradient id="paint19_linear_118_2" x1="146.457" y1="49.8457" x2="134.423" y2="36.084" gradientUnits="userSpaceOnUse">
<stop offset="0.463542" stop-color="#E88727"/>
<stop offset="0.770833" stop-color="#BD162C"/>
</linearGradient>
<linearGradient id="paint20_linear_118_2" x1="144.016" y1="49.1558" x2="132.096" y2="35.5239" gradientUnits="userSpaceOnUse">
<stop offset="0.463542" stop-color="#E88727"/>
<stop offset="0.770833" stop-color="#BD162C"/>
</linearGradient>
<linearGradient id="paint21_linear_118_2" x1="135.293" y1="47.7827" x2="122.149" y2="32.7512" gradientUnits="userSpaceOnUse">
<stop offset="0.463542" stop-color="#E88727"/>
<stop offset="0.770833" stop-color="#BD162C"/>
</linearGradient>
<linearGradient id="paint22_linear_118_2" x1="137.579" y1="48.0107" x2="124.889" y2="33.4994" gradientUnits="userSpaceOnUse">
<stop offset="0.463542" stop-color="#E88727"/>
<stop offset="0.770833" stop-color="#BD162C"/>
</linearGradient>
<linearGradient id="paint23_linear_118_2" x1="132.628" y1="47.2348" x2="119.222" y2="31.9037" gradientUnits="userSpaceOnUse">
<stop offset="0.463542" stop-color="#E88727"/>
<stop offset="0.770833" stop-color="#BD162C"/>
</linearGradient>
<linearGradient id="paint24_linear_118_2" x1="129.938" y1="46.8878" x2="115.915" y2="30.8507" gradientUnits="userSpaceOnUse">
<stop offset="0.463542" stop-color="#E88727"/>
<stop offset="0.770833" stop-color="#BD162C"/>
</linearGradient>
<linearGradient id="paint25_linear_118_2" x1="127.264" y1="46.6118" x2="112.655" y2="29.9055" gradientUnits="userSpaceOnUse">
<stop offset="0.463542" stop-color="#E88727"/>
<stop offset="0.770833" stop-color="#BD162C"/>
</linearGradient>
<linearGradient id="paint26_linear_118_2" x1="124.394" y1="46.2701" x2="109.119" y2="28.801" gradientUnits="userSpaceOnUse">
<stop offset="0.463542" stop-color="#E88727"/>
<stop offset="0.770833" stop-color="#BD162C"/>
</linearGradient>
<linearGradient id="paint27_linear_118_2" x1="121.033" y1="46.0642" x2="104.733" y2="27.4231" gradientUnits="userSpaceOnUse">
<stop offset="0.463542" stop-color="#E88727"/>
<stop offset="0.770833" stop-color="#BD162C"/>
</linearGradient>
<linearGradient id="paint28_linear_118_2" x1="117.515" y1="45.7736" x2="100.07" y2="25.8228" gradientUnits="userSpaceOnUse">
<stop offset="0.463542" stop-color="#E88727"/>
<stop offset="0.770833" stop-color="#BD162C"/>
</linearGradient>
<linearGradient id="paint29_linear_118_2" x1="139.756" y1="48.4007" x2="127.376" y2="34.2431" gradientUnits="userSpaceOnUse">
<stop offset="0.463542" stop-color="#E88727"/>
<stop offset="0.770833" stop-color="#BD162C"/>
</linearGradient>
<linearGradient id="paint30_linear_118_2" x1="141.877" y1="48.8412" x2="129.675" y2="34.888" gradientUnits="userSpaceOnUse">
<stop offset="0.463542" stop-color="#E88727"/>
<stop offset="0.770833" stop-color="#BD162C"/>
</linearGradient>
</defs>
</svg>
