<svg width="20" height="12" viewBox="0 0 20 12" fill="none" xmlns="http://www.w3.org/2000/svg">
<path d="M19.3266 0.661278H0.673401C0.301482 0.661278 0 0.962827 0 1.33468V10.6653C0 11.0372 0.301482 11.3387 0.673401 11.3387H19.3266C19.6985 11.3387 20 11.0372 20 10.6653V1.33468C20 0.962759 19.6985 0.661278 19.3266 0.661278ZM10 5.247L3.52485 2.00808H16.4752L10 5.247ZM1.3468 2.42444L5.69811 4.60101L1.3468 8.95414V2.42444ZM6.96761 5.23609L9.69879 6.60222C9.7936 6.64963 9.89677 6.6734 10.0001 6.6734C10.1034 6.6734 10.2065 6.64969 10.3013 6.60222L13.0325 5.23609L17.7865 9.99192H2.2136L6.96761 5.23609ZM14.3018 4.60114L18.6532 2.42444V8.95421L14.3018 4.60114Z" fill="black"/>
</svg>
