<svg width="17" height="17" viewBox="0 0 17 17" fill="none" xmlns="http://www.w3.org/2000/svg">
<path d="M16.8178 12.8923C16.185 11.696 13.9875 10.3988 13.8907 10.3421C13.6083 10.1813 13.3137 10.0962 13.0379 10.0962C12.6279 10.0962 12.2922 10.2841 12.089 10.6257C11.7675 11.0102 11.3688 11.4596 11.2721 11.5293C10.5233 12.0373 9.9371 11.9796 9.28852 11.331L5.66866 7.71085C5.02418 7.06636 4.96493 6.47293 5.46949 5.72822C5.54008 5.63084 5.98949 5.23186 6.37398 4.91009C6.61917 4.76417 6.78746 4.54734 6.8612 4.28136C6.95922 3.92744 6.88705 3.51112 6.65572 3.10552C6.6012 3.01223 5.3034 0.814354 4.10771 0.181842C3.88458 0.0636592 3.63309 0.00125885 3.38097 0.00125885C2.96559 0.00125885 2.57481 0.163248 2.28108 0.456655L1.48122 1.2562C0.216198 2.52091 -0.24172 3.95454 0.119446 5.51707C0.420732 6.81928 1.29875 8.20501 2.72955 9.63549L7.36387 14.2698C9.17474 16.0807 10.9012 16.9991 12.4952 16.9991C12.4952 16.9991 12.4952 16.9991 12.4955 16.9991C13.6679 16.9991 14.7608 16.5008 15.7432 15.5185L16.5427 14.7189C17.0287 14.2333 17.139 13.499 16.8178 12.8923Z" fill="black"/>
</svg>
