<svg width="50" height="32" viewBox="0 0 50 32" fill="none" xmlns="http://www.w3.org/2000/svg">
<path d="M17.8571 19.6429H15.7599L12.3429 14.6728C12.3371 14.6643 12.3305 14.6568 12.3244 14.6486C12.3138 14.6343 12.3034 14.6199 12.292 14.6063C12.2816 14.5936 12.2702 14.5819 12.2591 14.57C12.2508 14.5609 12.2426 14.5517 12.2338 14.543C12.2206 14.53 12.2069 14.518 12.193 14.5059C12.1852 14.4991 12.1775 14.492 12.1695 14.4854C12.1553 14.4739 12.1405 14.4633 12.1258 14.4527C12.1169 14.4463 12.1082 14.4398 12.0992 14.4338C12.0851 14.4246 12.0707 14.4162 12.0563 14.4078C12.0454 14.4015 12.0346 14.3949 12.0234 14.389C12.0105 14.3821 11.9973 14.3761 11.984 14.37C11.9705 14.3637 11.9571 14.3574 11.9433 14.3517C11.9314 14.3469 11.9194 14.3429 11.9074 14.3386C11.8919 14.333 11.8765 14.3275 11.8607 14.3228C11.849 14.3193 11.8371 14.3166 11.8253 14.3137C11.8091 14.3097 11.793 14.3055 11.7765 14.3024C11.7628 14.2997 11.7489 14.298 11.735 14.296C11.7204 14.2939 11.706 14.2914 11.6912 14.2901C11.672 14.2883 11.6526 14.2877 11.6333 14.2872C11.6246 14.2868 11.616 14.2857 11.6071 14.2857H11.5999C11.5994 14.2857 11.5989 14.2857 11.5984 14.2857H9.70979C9.69818 14.2857 9.6868 14.2871 9.67519 14.2875C9.65879 14.2882 9.64238 14.2884 9.62586 14.29C9.60722 14.2917 9.58914 14.2948 9.57084 14.2976C9.56113 14.2991 9.55153 14.2998 9.54171 14.3016C9.54026 14.3019 9.53881 14.3023 9.53736 14.3027C9.51615 14.3068 9.49562 14.3123 9.47497 14.318C9.46671 14.3202 9.45823 14.3219 9.45008 14.3243C9.43122 14.33 9.41292 14.3371 9.39461 14.344C9.38501 14.3476 9.37508 14.3507 9.36559 14.3546C9.35198 14.3603 9.33892 14.3671 9.32564 14.3734C9.31225 14.3798 9.29852 14.3857 9.28546 14.3928C9.27832 14.3967 9.27162 14.4012 9.26459 14.4053C9.24629 14.4157 9.22798 14.4263 9.21068 14.4381C9.20957 14.4387 9.20867 14.4396 9.20756 14.4404C9.16102 14.4721 9.11771 14.5078 9.07843 14.5472C9.07765 14.548 9.07709 14.5488 9.07631 14.5496C9.05711 14.569 9.0387 14.5891 9.0214 14.6101C9.01068 14.623 9.00108 14.6368 8.99104 14.6505C8.98423 14.6596 8.97698 14.6684 8.9705 14.6779C8.95655 14.6986 8.94372 14.72 8.93144 14.7417C8.92977 14.7448 8.92765 14.7477 8.92597 14.7507C8.91492 14.7709 8.90521 14.7917 8.89573 14.8128C8.89338 14.8181 8.89059 14.823 8.88825 14.8282C8.88122 14.8445 8.87564 14.8615 8.86961 14.8782C8.86582 14.889 8.86135 14.8994 8.85789 14.9103C8.8541 14.9222 8.85153 14.9345 8.84818 14.9467C8.84372 14.9631 8.83892 14.9795 8.83546 14.9962C8.83367 15.0045 8.83278 15.0131 8.83133 15.0214C8.82754 15.0424 8.82385 15.0635 8.82162 15.0849C8.82095 15.0917 8.82084 15.0988 8.82028 15.1057C8.81838 15.1286 8.81682 15.1516 8.81682 15.1748C8.81682 15.1761 8.8166 15.1774 8.8166 15.1787C8.8166 15.1878 8.81771 15.1967 8.81794 15.2058C8.8185 15.225 8.81905 15.2441 8.82084 15.2633C8.82251 15.281 8.82553 15.2983 8.82821 15.3159C8.82977 15.3261 8.83055 15.3364 8.83256 15.3467L8.83457 15.3569C8.83479 15.3578 8.8349 15.3587 8.83512 15.3596L9.65555 19.6429H7.51269L5.98847 18.1186C5.98256 18.1127 5.97597 18.1076 5.96995 18.1019C5.95477 18.0875 5.93959 18.0731 5.92341 18.0598C5.9118 18.0502 5.89952 18.0419 5.88747 18.033C5.87608 18.0246 5.86492 18.0157 5.85309 18.0078C5.83992 17.999 5.8262 17.9913 5.81269 17.9833C5.80108 17.9763 5.78981 17.9691 5.77798 17.9627C5.76481 17.9557 5.7512 17.9497 5.7378 17.9433C5.72475 17.9372 5.71191 17.9307 5.69863 17.9251C5.68602 17.9199 5.67318 17.9157 5.66046 17.9112C5.64573 17.9058 5.63111 17.9001 5.61593 17.8955C5.60376 17.8919 5.59126 17.8892 5.57899 17.8861C5.56314 17.882 5.5474 17.8776 5.53122 17.8743C5.51771 17.8717 5.50399 17.8701 5.49037 17.8681C5.47519 17.8659 5.46024 17.8631 5.44483 17.8615C5.42229 17.8593 5.39963 17.8586 5.37709 17.858C5.37017 17.858 5.36381 17.8571 5.35711 17.8571C5.35042 17.8571 5.34405 17.858 5.33736 17.8582C5.3147 17.8586 5.29216 17.8594 5.26961 17.8616C5.25421 17.8631 5.23925 17.866 5.22408 17.8682C5.21046 17.8702 5.19673 17.8718 5.18323 17.8744C5.16704 17.8777 5.15131 17.882 5.13546 17.8862C5.12318 17.8893 5.11068 17.892 5.09852 17.8957C5.08334 17.9002 5.06872 17.9059 5.05399 17.9113C5.04126 17.9159 5.02843 17.9201 5.01582 17.9252C5.00242 17.9308 4.98959 17.9373 4.97664 17.9434C4.96314 17.9498 4.94963 17.9557 4.93646 17.9628C4.92463 17.9692 4.91325 17.9765 4.90175 17.9834C4.88825 17.9914 4.87452 17.9991 4.86135 18.0079C4.84952 18.0159 4.83836 18.0247 4.82698 18.0332C4.81492 18.0421 4.80276 18.0505 4.79104 18.0599C4.77486 18.0732 4.75968 18.0876 4.7445 18.102C4.73847 18.1078 4.73189 18.1128 4.72597 18.1188C4.71972 18.125 4.71437 18.1319 4.70823 18.1384C4.69428 18.1532 4.68021 18.168 4.66727 18.1837C4.65711 18.1961 4.64818 18.209 4.63881 18.2219C4.63088 18.2326 4.62263 18.2429 4.61526 18.2539C4.60577 18.2681 4.59751 18.2827 4.58892 18.2972C4.58267 18.3077 4.57608 18.318 4.57028 18.3288C4.56258 18.3432 4.556 18.358 4.54908 18.3728C4.54361 18.3845 4.53769 18.3961 4.53267 18.4082C4.52687 18.4223 4.52207 18.4367 4.51693 18.451C4.51225 18.4642 4.50711 18.4771 4.50309 18.4906C4.49874 18.505 4.4955 18.5196 4.49193 18.5342C4.48847 18.5479 4.48468 18.5614 4.48189 18.5753C4.47854 18.5922 4.47653 18.6093 4.47408 18.6263C4.4724 18.6382 4.47017 18.6498 4.46894 18.6617C4.46604 18.6913 4.46448 18.721 4.46448 18.7507V22.3214C4.46448 22.3396 4.46615 22.3575 4.46716 22.3753C4.4512 22.6227 4.53691 22.8753 4.72586 23.0644C4.90008 23.2387 5.12854 23.3259 5.35711 23.3259C5.58568 23.3259 5.81414 23.2387 5.98847 23.0644L7.6243 21.4286H9.65544L8.83524 25.7119C8.83501 25.7128 8.8349 25.7137 8.83468 25.7146L8.83267 25.7249C8.83066 25.7352 8.82999 25.7454 8.82832 25.7557C8.82564 25.7731 8.82263 25.7905 8.82095 25.8083C8.81905 25.8276 8.81861 25.8467 8.81805 25.8657C8.81805 25.8749 8.81693 25.8837 8.81693 25.8929C8.81693 25.8942 8.81716 25.8954 8.81716 25.8968C8.81727 25.92 8.81883 25.943 8.82062 25.9659C8.82117 25.9728 8.82117 25.9798 8.82196 25.9866C8.82419 26.008 8.82787 26.029 8.83167 26.0501C8.83312 26.0585 8.83401 26.0671 8.83579 26.0753C8.83925 26.0921 8.84405 26.1084 8.84852 26.1249C8.85175 26.1371 8.85443 26.1493 8.85823 26.1613C8.86169 26.1721 8.86615 26.1826 8.86995 26.1933C8.87597 26.21 8.88155 26.227 8.88858 26.2433C8.89082 26.2486 8.89372 26.2536 8.89606 26.2587C8.90555 26.2798 8.91526 26.3007 8.92631 26.3209C8.92798 26.324 8.92999 26.3268 8.93178 26.3298C8.94405 26.3516 8.95678 26.3731 8.97084 26.3936C8.9772 26.4031 8.98457 26.4118 8.99138 26.4211C9.00142 26.4347 9.01102 26.4486 9.02173 26.4615C9.03903 26.4825 9.05745 26.5026 9.07664 26.522C9.07731 26.5228 9.07798 26.5236 9.07876 26.5243C9.11805 26.5637 9.16135 26.5994 9.20789 26.6311C9.20901 26.6319 9.2099 26.6327 9.21102 26.6335C9.22843 26.6452 9.24662 26.6557 9.26492 26.6663C9.27196 26.6703 9.27865 26.6749 9.28579 26.6788C9.29885 26.6858 9.31258 26.6917 9.32597 26.6981C9.33925 26.7045 9.35231 26.7113 9.36593 26.717C9.37541 26.7209 9.38535 26.724 9.39495 26.7276C9.41325 26.7345 9.43155 26.7415 9.45042 26.7472C9.45856 26.7497 9.46704 26.7513 9.4753 26.7536C9.49595 26.7592 9.51649 26.7646 9.53769 26.7689C9.53914 26.7692 9.54059 26.7697 9.54204 26.77C9.55555 26.7726 9.56894 26.7738 9.58233 26.7758C9.59573 26.7777 9.60901 26.7803 9.62263 26.7816C9.6522 26.7846 9.68178 26.7863 9.71102 26.7863C9.71269 26.7863 9.71425 26.7861 9.71593 26.7861H11.6051C11.6055 26.7861 11.6061 26.7862 11.6066 26.7862C11.6092 26.7862 11.6118 26.7857 11.6145 26.7857C11.6456 26.7855 11.6764 26.7836 11.7068 26.7803C11.7157 26.7792 11.7244 26.7775 11.7332 26.7762C11.7579 26.7728 11.7823 26.7685 11.8063 26.7631C11.8158 26.7609 11.8252 26.7583 11.8347 26.7558C11.8579 26.7497 11.8807 26.7429 11.9031 26.7349C11.9127 26.7316 11.9222 26.7281 11.9317 26.7244C11.9541 26.7157 11.9759 26.7059 11.9973 26.6955C12.006 26.6913 12.0148 26.6875 12.0234 26.6829C12.052 26.6679 12.0799 26.6516 12.1066 26.6336C12.1124 26.6297 12.1176 26.6251 12.1233 26.6211C12.1443 26.6061 12.1647 26.5906 12.1843 26.574C12.1939 26.5659 12.2031 26.557 12.2125 26.5484C12.2283 26.5338 12.2435 26.5188 12.2582 26.503C12.2665 26.4941 12.2747 26.4853 12.2828 26.476C12.301 26.4549 12.3182 26.4329 12.3343 26.4102C12.3371 26.4063 12.3404 26.403 12.343 26.3991L15.7599 21.4286H17.8571C18.3502 21.4286 18.75 21.0288 18.75 20.5357C18.75 20.0426 18.3502 19.6429 17.8571 19.6429ZM10.7898 16.0714H11.1374L13.5927 19.6429H11.4737L10.7898 16.0714ZM13.5927 21.4286L11.1374 25H10.7898L11.4737 21.4286H13.5927Z" fill="black"/>
<path d="M30.3572 24.1071H23.2144C22.7213 24.1071 22.3215 24.5069 22.3215 25C22.3215 25.4931 22.7213 25.8929 23.2144 25.8929H30.3572C30.8503 25.8929 31.2501 25.4931 31.2501 25C31.2501 24.5069 30.8503 24.1071 30.3572 24.1071Z" fill="black"/>
<path d="M30.3572 19.6429H23.2144C22.7213 19.6429 22.3215 20.0426 22.3215 20.5357C22.3215 21.0288 22.7213 21.4286 23.2144 21.4286H30.3572C30.8503 21.4286 31.2501 21.0288 31.2501 20.5357C31.2501 20.0426 30.8503 19.6429 30.3572 19.6429Z" fill="black"/>
<path d="M23.2144 16.9643H30.3572C30.8503 16.9643 31.2501 16.5645 31.2501 16.0714C31.2501 15.5784 30.8503 15.1786 30.3572 15.1786H23.2144C22.7213 15.1786 22.3215 15.5784 22.3215 16.0714C22.3215 16.5645 22.7213 16.9643 23.2144 16.9643Z" fill="black"/>
<path d="M40.1785 18.75C39.6854 18.75 39.2856 19.1498 39.2856 19.6429V25.8929C39.2856 26.3859 39.6854 26.7857 40.1785 26.7857C40.6716 26.7857 41.0714 26.3859 41.0714 25.8929V19.6429C41.0714 19.1498 40.6716 18.75 40.1785 18.75Z" fill="black"/>
<path d="M40.1785 14.2857C39.6854 14.2857 39.2856 14.6855 39.2856 15.1786V16.0714C39.2856 16.5645 39.6854 16.9643 40.1785 16.9643C40.6716 16.9643 41.0714 16.5645 41.0714 16.0714V15.1786C41.0714 14.6855 40.6716 14.2857 40.1785 14.2857Z" fill="black"/>
<path d="M45.5357 0H8.03571C5.57411 0 3.57143 2.00268 3.57143 4.46429V9.91127C1.53627 10.3261 0 12.1298 0 14.2857V26.7857C0 29.2473 2.00268 31.25 4.46429 31.25H41.9643C44.4259 31.25 46.4286 29.2473 46.4286 26.7857V21.3387C48.4637 20.9239 50 19.1202 50 16.9643V4.46429C50 2.00268 47.9973 0 45.5357 0ZM1.78571 26.7857V14.2857C1.78571 12.8088 2.98739 11.6071 4.46429 11.6071H18.8605C18.861 11.6071 18.8617 11.6073 18.8623 11.6073C18.8627 11.6073 18.8633 11.6071 18.8637 11.6071H34.8214V29.4643H4.46429C2.98739 29.4643 1.78571 28.2626 1.78571 26.7857ZM14.3613 6.25H14.7088L17.1642 9.82143H15.0452L14.3613 6.25ZM44.6429 26.7857C44.6429 28.2626 43.4412 29.4643 41.9643 29.4643H36.6071V11.6071H41.9643C43.4412 11.6071 44.6429 12.8088 44.6429 14.2857V26.7857ZM48.2143 16.9643C48.2143 18.1282 47.4677 19.1206 46.4286 19.4893V14.2857C46.4286 12.8283 45.7265 11.532 44.6429 10.7167V9.82143C44.6429 9.32835 44.2431 8.92857 43.75 8.92857C43.2569 8.92857 42.8571 9.32835 42.8571 9.82143V9.91127C42.5685 9.85245 42.27 9.82143 41.9643 9.82143H19.3314L15.9144 4.85134C15.9086 4.84297 15.902 4.83549 15.8961 4.82734C15.8855 4.81295 15.875 4.79844 15.8635 4.78482C15.8531 4.77243 15.8421 4.76094 15.8311 4.74922C15.8224 4.73996 15.8142 4.73036 15.8051 4.72154C15.7923 4.70893 15.7789 4.69721 15.7654 4.68549C15.7571 4.67835 15.7492 4.67087 15.7407 4.66395C15.7269 4.65279 15.7126 4.64241 15.6982 4.63214C15.689 4.62545 15.6798 4.61864 15.6703 4.61228C15.6568 4.60335 15.6429 4.5952 15.6289 4.58705C15.6175 4.58036 15.6061 4.57355 15.5944 4.5673C15.582 4.56083 15.5693 4.55502 15.5566 4.54911C15.5426 4.54252 15.5287 4.53594 15.5144 4.53013C15.5031 4.52556 15.4916 4.52176 15.4802 4.51763C15.4642 4.51183 15.4482 4.50603 15.4317 4.50123C15.4206 4.49799 15.4096 4.49554 15.3984 4.49263C15.3816 4.48839 15.3648 4.48404 15.3477 4.48069C15.3347 4.47824 15.3215 4.47667 15.3085 4.47467C15.2932 4.47243 15.2779 4.46987 15.2624 4.46842C15.2441 4.46663 15.2258 4.46629 15.2075 4.46563C15.1978 4.4654 15.1884 4.46429 15.1786 4.46429H15.1706C15.1705 4.46429 15.1704 4.46429 15.1703 4.46429H13.2812C13.2695 4.46429 13.2583 4.46562 13.2467 4.46607C13.2302 4.46674 13.214 4.46696 13.1974 4.46853C13.1788 4.47031 13.1606 4.47333 13.1423 4.47612C13.1326 4.47768 13.123 4.47835 13.1133 4.48013C13.1118 4.48047 13.1104 4.48092 13.1089 4.48125C13.0877 4.48538 13.0672 4.49085 13.0465 4.49654C13.0383 4.49877 13.0298 4.50045 13.0217 4.5029C13.0028 4.50859 12.9845 4.51563 12.9662 4.52254C12.9566 4.52612 12.9467 4.52924 12.9372 4.53315C12.9235 4.53884 12.9105 4.54565 12.8972 4.55201C12.8838 4.55837 12.8701 4.56429 12.857 4.57132C12.8499 4.57522 12.8432 4.5798 12.8362 4.58382C12.8179 4.59431 12.7996 4.60491 12.7823 4.61663C12.7811 4.6173 12.7802 4.61819 12.7791 4.61897C12.7326 4.65067 12.6893 4.68638 12.65 4.72578C12.6492 4.72656 12.6487 4.72734 12.6479 4.72812C12.6287 4.74754 12.6103 4.76763 12.593 4.78862C12.5823 4.80156 12.5727 4.8154 12.5626 4.82902C12.5558 4.83817 12.5485 4.84699 12.5421 4.85647C12.5281 4.87712 12.5153 4.89855 12.503 4.92031C12.5013 4.92333 12.4992 4.92623 12.4975 4.92924C12.4865 4.94944 12.4768 4.97031 12.4673 4.99141C12.465 4.99665 12.4622 5.00156 12.4598 5.00681C12.4528 5.0231 12.4472 5.04007 12.4412 5.05681C12.4374 5.06752 12.4329 5.07801 12.4295 5.08884C12.4257 5.10078 12.4231 5.11306 12.4198 5.12522C12.4153 5.14163 12.4105 5.15804 12.407 5.17478C12.4052 5.18304 12.4044 5.19163 12.4029 5.2C12.3991 5.22098 12.3954 5.24208 12.3932 5.2635C12.3925 5.27031 12.3924 5.27734 12.3919 5.28426C12.39 5.30714 12.3884 5.33013 12.3884 5.35335C12.3884 5.35469 12.3882 5.35592 12.3882 5.35725C12.3882 5.36641 12.3893 5.37522 12.3895 5.38438C12.3901 5.40357 12.3906 5.42266 12.3924 5.44185C12.3941 5.4596 12.3971 5.4769 12.3998 5.49442C12.4013 5.50469 12.4021 5.51496 12.4041 5.52522L12.4061 5.53549C12.4064 5.53638 12.4065 5.53728 12.4067 5.53817L13.227 9.82143H11.0842L9.55993 8.29721C9.55402 8.2913 9.54743 8.28616 9.54141 8.28047C9.52623 8.26607 9.51105 8.25167 9.49487 8.23839C9.48326 8.22879 9.47098 8.22042 9.45893 8.21161C9.44754 8.20312 9.43638 8.19431 9.42455 8.18638C9.41138 8.17757 9.39766 8.16987 9.38415 8.16183C9.37254 8.15491 9.36127 8.14766 9.34944 8.14129C9.33627 8.13426 9.32266 8.12824 9.30926 8.12187C9.29621 8.11574 9.28337 8.10926 9.27009 8.10368C9.25748 8.09844 9.24464 8.09431 9.23192 8.08973C9.21719 8.08437 9.20257 8.07868 9.18739 8.07411C9.17522 8.07042 9.16272 8.06775 9.15045 8.06462C9.1346 8.0606 9.11886 8.05614 9.10268 8.0529C9.08917 8.05022 9.07545 8.04866 9.06183 8.04665C9.04665 8.04442 9.0317 8.04163 9.01629 8.04007C8.99375 8.03784 8.97109 8.03716 8.94855 8.03661C8.94163 8.03661 8.93527 8.03571 8.92857 8.03571C8.92188 8.03571 8.91551 8.03661 8.90882 8.03672C8.88616 8.03717 8.86362 8.03795 8.84107 8.04018C8.82567 8.04163 8.81071 8.04453 8.79554 8.04676C8.78192 8.04877 8.76819 8.05033 8.75469 8.05301C8.7385 8.05625 8.72277 8.0606 8.70692 8.06473C8.69464 8.06786 8.68214 8.07054 8.66998 8.07422C8.6548 8.07879 8.64018 8.08449 8.62545 8.08984C8.61272 8.09442 8.59989 8.09866 8.58728 8.1038C8.57388 8.10938 8.56105 8.11585 8.5481 8.12199C8.5346 8.12835 8.52109 8.13426 8.50792 8.14141C8.49609 8.14777 8.48471 8.15502 8.47321 8.16194C8.45971 8.16998 8.44598 8.17768 8.43281 8.18649C8.42098 8.19442 8.40982 8.20324 8.39844 8.21172C8.38638 8.22065 8.37422 8.22902 8.3625 8.2385C8.34632 8.25179 8.33114 8.26618 8.31596 8.28058C8.30993 8.28638 8.30335 8.29141 8.29743 8.29732C8.29118 8.30357 8.28583 8.31049 8.27969 8.31697C8.26574 8.33181 8.25167 8.34654 8.23873 8.36228C8.22857 8.37466 8.21964 8.38761 8.21027 8.40045C8.20234 8.41116 8.19408 8.42143 8.18672 8.43248C8.17723 8.44665 8.16897 8.46127 8.16038 8.47578C8.15413 8.48627 8.14754 8.49654 8.14174 8.50737C8.13404 8.52176 8.12746 8.53661 8.12054 8.55134C8.11507 8.56306 8.10915 8.57467 8.10413 8.58672C8.09833 8.60089 8.09353 8.61529 8.08839 8.62958C8.0837 8.64275 8.07857 8.65569 8.07455 8.6692C8.0702 8.68359 8.06696 8.69821 8.06339 8.71272C8.05993 8.72645 8.05614 8.73995 8.05335 8.75391C8.05 8.77076 8.04799 8.78783 8.04554 8.80491C8.04386 8.81674 8.04163 8.82835 8.0404 8.84029C8.0375 8.86987 8.03594 8.89955 8.03594 8.92924V9.82143H5.35714V4.46429C5.35714 2.98739 6.55882 1.78571 8.03571 1.78571H38.3929V7.14286C38.3929 7.63594 38.7926 8.03571 39.2857 8.03571C39.7788 8.03571 40.1786 7.63594 40.1786 7.14286V1.78571H45.5357C47.0126 1.78571 48.2143 2.98739 48.2143 4.46429V16.9643Z" fill="black"/>
<path d="M33.9285 5.35715H26.7857C26.2926 5.35715 25.8928 5.75692 25.8928 6.25C25.8928 6.74308 26.2926 7.14286 26.7857 7.14286H33.9285C34.4216 7.14286 34.8214 6.74308 34.8214 6.25C34.8214 5.75692 34.4216 5.35715 33.9285 5.35715Z" fill="black"/>
<path d="M43.75 4.46428C43.257 4.46428 42.8572 4.86406 42.8572 5.35714V6.24999C42.8572 6.74307 43.257 7.14285 43.75 7.14285C44.2431 7.14285 44.6429 6.74307 44.6429 6.24999V5.35714C44.6429 4.86406 44.2431 4.46428 43.75 4.46428Z" fill="black"/>
</svg>
