<svg width="20" height="18" viewBox="0 0 20 18" fill="none" xmlns="http://www.w3.org/2000/svg">
<path d="M19.5466 2.70245C19.2325 2.84181 18.9094 2.95942 18.5794 3.0549C18.9701 2.61297 19.2681 2.09297 19.4499 1.52394C19.4907 1.39639 19.4485 1.25677 19.3436 1.17336C19.2389 1.08987 19.0934 1.07987 18.9781 1.14819C18.2772 1.56394 17.5209 1.86271 16.7279 2.03742C15.9292 1.2569 14.8443 0.81271 13.7227 0.81271C11.3553 0.81271 9.42924 2.73871 9.42924 5.10606C9.42924 5.29252 9.44105 5.47794 9.4644 5.66077C6.52666 5.40284 3.7955 3.9589 1.92002 1.65832C1.85318 1.57632 1.75021 1.53213 1.64479 1.54058C1.53931 1.54884 1.44454 1.60832 1.39125 1.69974C1.01086 2.35245 0.809762 3.09897 0.809762 3.85852C0.809762 4.89303 1.17912 5.87458 1.83157 6.64155C1.63318 6.57284 1.44066 6.48697 1.25692 6.38497C1.15828 6.33007 1.03789 6.3309 0.939891 6.3871C0.841826 6.44329 0.780343 6.54665 0.777762 6.65961C0.77731 6.67865 0.77731 6.69768 0.77731 6.71697C0.77731 8.26116 1.60841 9.65142 2.87905 10.4092C2.76989 10.3983 2.66079 10.3825 2.55241 10.3617C2.44066 10.3404 2.32576 10.3795 2.25041 10.4648C2.17492 10.5499 2.14995 10.6686 2.18473 10.777C2.65505 12.2454 3.86595 13.3255 5.32982 13.6548C4.11569 14.4152 2.72724 14.8135 1.2697 14.8135C0.965568 14.8135 0.659698 14.7957 0.360343 14.7603C0.211633 14.7426 0.0694399 14.8304 0.0187948 14.9718C-0.0318503 15.1133 0.0218271 15.271 0.148343 15.3521C2.02079 16.5527 4.18589 17.1873 6.40944 17.1873C10.7807 17.1873 13.5152 15.126 15.0394 13.3968C16.94 11.2406 18.0301 8.38658 18.0301 5.56665C18.0301 5.44884 18.0283 5.32987 18.0247 5.21129C18.7745 4.64632 19.4201 3.96258 19.9455 3.17671C20.0253 3.05736 20.0167 2.89961 19.9242 2.78974C19.8319 2.67981 19.678 2.64426 19.5466 2.70245Z" fill="black"/>
</svg>
